<svg width="154" height="32" viewBox="0 0 154 32" fill="none" xmlns="http://www.w3.org/2000/svg">
<path d="M53.2986 0H46.2132V9.10158C44.7385 7.36795 43.12 6.60948 40.9261 6.60948C36.1785 6.60948 33.0853 10.4018 33.0853 16.2528C33.0853 22.2844 36.3223 26.1851 41.3217 26.1851C43.5876 26.1851 45.1701 25.4266 46.5009 23.693V25.7156H53.2986V0ZM43.3358 12.0632C45.35 12.0632 46.4649 13.5801 46.4649 16.3251C46.4649 19.0339 45.35 20.5147 43.3358 20.5147C41.2857 20.5147 40.2427 19.1061 40.2427 16.3612C40.2427 13.544 41.3217 12.0632 43.3358 12.0632Z" fill="white"/>
<path d="M76.5128 20.1174H69.859C69.1397 21.237 68.2765 21.6704 66.8738 21.6704C64.6798 21.6704 63.349 20.3341 63.2411 17.9503H76.9085V17.4086C76.9085 10.8352 72.9162 6.60948 66.658 6.60948C60.6875 6.60948 56.4075 10.7991 56.4075 16.614C56.4075 22.8262 61.1191 26.2573 66.9097 26.2573C70.938 26.2573 75.3619 24.307 76.5128 20.1174ZM69.9669 14.3747H63.2771C63.6368 12.2438 64.7877 11.1964 66.6939 11.1964C68.78 11.1964 69.7871 12.4605 69.9669 14.3747Z" fill="white"/>
<path d="M97.1175 12.5327C96.7219 7.65689 92.6936 6.53725 88.3057 6.53725C82.4431 6.53725 79.2781 8.59594 79.2781 12.4244C79.2781 17.0113 83.5581 17.6614 87.0469 18.4199C89.6005 18.9977 90.6795 19.07 90.6795 20.2257C90.6795 21.1287 89.8523 21.7065 88.4496 21.7065C86.6153 21.7065 85.788 21.0564 85.6082 19.5034H78.8824C79.314 24.7043 83.5221 26.1851 88.3057 26.1851C94.1683 26.1851 97.6571 23.7652 97.6571 19.6479C97.6571 15.2777 93.8446 14.3386 90.3198 13.6885C89.4566 13.544 86.2196 13.3634 86.2196 11.9187C86.2196 11.1603 86.903 10.7991 88.1618 10.7991C89.8163 10.7991 90.4277 11.1964 90.6795 12.5327H97.1175Z" fill="white"/>
<path d="M107.808 0H100.686V4.9842H107.808V0ZM107.808 7.07901H100.686V25.7156H107.808V7.07901Z" fill="white"/>
<path d="M130.806 7.07901H123.936V9.31828C122.677 7.40406 121.239 6.53725 118.757 6.53725C113.937 6.53725 110.844 10.0406 110.844 15.5305C110.844 21.0564 113.793 24.3792 118.685 24.3792C120.915 24.3792 122.569 23.693 123.936 22.0316V24.1625C123.936 26.0406 123.648 27.5214 121.167 27.5214C119.584 27.5214 118.901 27.088 118.541 25.86H111.456C112.103 30.9165 116.419 32 120.951 32C127.137 32 130.806 29.833 130.806 23.079V7.07901ZM120.879 11.8465C122.929 11.8465 124.08 13.219 124.08 15.6027C124.08 18.0226 122.965 19.395 120.915 19.395C118.901 19.395 117.75 18.0226 117.75 15.6027C117.75 13.219 118.865 11.8465 120.879 11.8465Z" fill="white"/>
<path d="M141.412 7.07901H134.578V25.7156H141.699V15.4582C141.699 13.6885 142.419 12.316 144.433 12.316C146.087 12.316 146.843 13.2551 146.843 15.2777V25.7156H154V13.9413C154 9.89616 152.31 6.57336 147.31 6.57336C144.793 6.57336 142.958 7.4763 141.412 9.39052V7.07901Z" fill="white"/>
<path fill-rule="evenodd" clip-rule="evenodd" d="M2.99731 1.63745H0V25.7157H8.99174V15.6831H12.988V25.7157H16.9844V15.6831H20.9807V25.7157H23.9778V1.63745H6.99361V11.67H2.99731V1.63745Z" fill="#DA353B"/>
</svg>